<svg xmlns:xlink="http://www.w3.org/1999/xlink" width="10.791ex" height="3.343ex" style="font-size: 15px; vertical-align: -1.005ex;" viewBox="0 -1006.6 4646.3 1439.2" role="img" focusable="false" xmlns="http://www.w3.org/2000/svg">
<defs>
<path stroke-width="1" id="E1-MJMATHI-5A" d="M58 8Q58 23 64 35Q64 36 329 334T596 635L586 637Q575 637 512 637H500H476Q442 637 420 635T365 624T311 598T266 548T228 469Q227 466 226 463T224 458T223 453T222 450L221 448Q218 443 202 443Q185 443 182 453L214 561Q228 606 241 651Q249 679 253 681Q256 683 487 683H718Q723 678 723 675Q723 673 717 649Q189 54 188 52L185 49H274Q369 50 377 51Q452 60 500 100T579 247Q587 272 590 277T603 282H607Q628 282 628 271Q547 5 541 2Q538 0 300 0H124Q58 0 58 8Z"></path>
<path stroke-width="1" id="E1-MJMATHI-6A" d="M297 596Q297 627 318 644T361 661Q378 661 389 651T403 623Q403 595 384 576T340 557Q322 557 310 567T297 596ZM288 376Q288 405 262 405Q240 405 220 393T185 362T161 325T144 293L137 279Q135 278 121 278H107Q101 284 101 286T105 299Q126 348 164 391T252 441Q253 441 260 441T272 442Q296 441 316 432Q341 418 354 401T367 348V332L318 133Q267 -67 264 -75Q246 -125 194 -164T75 -204Q25 -204 7 -183T-12 -137Q-12 -110 7 -91T53 -71Q70 -71 82 -81T95 -112Q95 -148 63 -167Q69 -168 77 -168Q111 -168 139 -140T182 -74L193 -32Q204 11 219 72T251 197T278 308T289 365Q289 372 288 376Z"></path>
<path stroke-width="1" id="E1-MJMAIN-2208" d="M84 250Q84 372 166 450T360 539Q361 539 377 539T419 540T469 540H568Q583 532 583 520Q583 511 570 501L466 500Q355 499 329 494Q280 482 242 458T183 409T147 354T129 306T124 272V270H568Q583 262 583 250T568 230H124V228Q124 207 134 177T167 112T231 48T328 7Q355 1 466 0H570Q583 -10 583 -20Q583 -32 568 -40H471Q464 -40 446 -40T417 -41Q262 -41 172 45Q84 127 84 250Z"></path>
<path stroke-width="1" id="E1-MJAMS-52" d="M17 665Q17 672 28 683H221Q415 681 439 677Q461 673 481 667T516 654T544 639T566 623T584 607T597 592T607 578T614 565T618 554L621 548Q626 530 626 497Q626 447 613 419Q578 348 473 326L455 321Q462 310 473 292T517 226T578 141T637 72T686 35Q705 30 705 16Q705 7 693 -1H510Q503 6 404 159L306 310H268V183Q270 67 271 59Q274 42 291 38Q295 37 319 35Q344 35 353 28Q362 17 353 3L346 -1H28Q16 5 16 16Q16 35 55 35Q96 38 101 52Q106 60 106 341T101 632Q95 645 55 648Q17 648 17 665ZM241 35Q238 42 237 45T235 78T233 163T233 337V621L237 635L244 648H133Q136 641 137 638T139 603T141 517T141 341Q141 131 140 89T134 37Q133 36 133 35H241ZM457 496Q457 540 449 570T425 615T400 634T377 643Q374 643 339 648Q300 648 281 635Q271 628 270 610T268 481V346H284Q327 346 375 352Q421 364 439 392T457 496ZM492 537T492 496T488 427T478 389T469 371T464 361Q464 360 465 360Q469 360 497 370Q593 400 593 495Q593 592 477 630L457 637L461 626Q474 611 488 561Q492 537 492 496ZM464 243Q411 317 410 317Q404 317 401 315Q384 315 370 312H346L526 35H619L606 50Q553 109 464 243Z"></path>
<path stroke-width="1" id="E1-MJMAIN-31" d="M213 578L200 573Q186 568 160 563T102 556H83V602H102Q149 604 189 617T245 641T273 663Q275 666 285 666Q294 666 302 660V361L303 61Q310 54 315 52T339 48T401 46H427V0H416Q395 3 257 3Q121 3 100 0H88V46H114Q136 46 152 46T177 47T193 50T201 52T207 57T213 61V578Z"></path>
<path stroke-width="1" id="E1-MJMAIN-D7" d="M630 29Q630 9 609 9Q604 9 587 25T493 118L389 222L284 117Q178 13 175 11Q171 9 168 9Q160 9 154 15T147 29Q147 36 161 51T255 146L359 250L255 354Q174 435 161 449T147 471Q147 480 153 485T168 490Q173 490 175 489Q178 487 284 383L389 278L493 382Q570 459 587 475T609 491Q630 491 630 471Q630 464 620 453T522 355L418 250L522 145Q606 61 618 48T630 29Z"></path>
<path stroke-width="1" id="E1-MJMATHI-6D" d="M21 287Q22 293 24 303T36 341T56 388T88 425T132 442T175 435T205 417T221 395T229 376L231 369Q231 367 232 367L243 378Q303 442 384 442Q401 442 415 440T441 433T460 423T475 411T485 398T493 385T497 373T500 364T502 357L510 367Q573 442 659 442Q713 442 746 415T780 336Q780 285 742 178T704 50Q705 36 709 31T724 26Q752 26 776 56T815 138Q818 149 821 151T837 153Q857 153 857 145Q857 144 853 130Q845 101 831 73T785 17T716 -10Q669 -10 648 17T627 73Q627 92 663 193T700 345Q700 404 656 404H651Q565 404 506 303L499 291L466 157Q433 26 428 16Q415 -11 385 -11Q372 -11 364 -4T353 8T350 18Q350 29 384 161L420 307Q423 322 423 345Q423 404 379 404H374Q288 404 229 303L222 291L189 157Q156 26 151 16Q138 -11 108 -11Q95 -11 87 -5T76 7T74 17Q74 30 112 181Q151 335 151 342Q154 357 154 369Q154 405 129 405Q107 405 92 377T69 316T57 280Q55 278 41 278H27Q21 284 21 287Z"></path>
</defs>
<g stroke="currentColor" fill="currentColor" stroke-width="0" transform="matrix(1 0 0 -1 0 0)">
 <use xlink:href="#E1-MJMATHI-5A" x="0" y="0"></use>
 <use transform="scale(0.707)" xlink:href="#E1-MJMATHI-6A" x="966" y="-213"></use>
 <use xlink:href="#E1-MJMAIN-2208" x="1352" y="0"></use>
<g transform="translate(2298,0)">
 <use xlink:href="#E1-MJAMS-52" x="0" y="0"></use>
<g transform="translate(722,412)">
 <use transform="scale(0.707)" xlink:href="#E1-MJMAIN-31" x="0" y="0"></use>
 <use transform="scale(0.707)" xlink:href="#E1-MJMAIN-D7" x="500" y="0"></use>
 <use transform="scale(0.707)" xlink:href="#E1-MJMATHI-6D" x="1279" y="0"></use>
</g>
</g>
</g>
</svg>